<svg xmlns="http://www.w3.org/2000/svg" viewBox="0 0 1186.92 252.91"><defs><style>.cls-1{fill:#46a0fc;}</style></defs><title>Rate_My_Photo</title><g id="Layer_1" data-name="Layer 1"><path d="M704.16,480.69h33.35l27.18,44.09,27.17-44.09h33.35V594.58h-31.4v-65.4l-29.12,44.58H764l-29-44.26v65.08H704.16Z" transform="translate(-361 -363.74)"/><path d="M878.25,552,835,480.69h36l23.43,41.49L918,480.69h35.31L910,551.47v43.11H878.25Z" transform="translate(-361 -363.74)"/><path d="M963,480.69h48.82c28.79,0,47.34,14.81,47.34,40V521c0,26.85-20.66,41-49,41H994.58v32.54H963Zm46.54,56.62c11.22,0,18.06-5.85,18.06-14.8v-.33c0-9.76-6.84-15-18.23-15h-14.8v30.1Z" transform="translate(-361 -363.74)"/><path d="M1072.51,480.69h31.56v42.63h40.52V480.69h31.56V594.58h-31.56V551.31h-40.52v43.27h-31.56Z" transform="translate(-361 -363.74)"/><path d="M1192.42,538v-.32c0-32.71,26.35-59.23,61.5-59.23s61.18,26.2,61.18,58.9v.33c0,32.7-26.36,59.22-61.51,59.22S1192.42,570.67,1192.42,538Z" transform="translate(-361 -363.74)"/><path d="M1354.47,508.35H1320.3V480.69h99.9v27.66H1386v86.23h-31.56Z" transform="translate(-361 -363.74)"/><path d="M1425.24,538v-.32c0-32.71,26.36-59.23,61.5-59.23s61.18,26.2,61.18,58.9v.33c0,32.7-26.36,59.22-61.5,59.22S1425.24,570.67,1425.24,538Zm90.46,0v-.32c0-16.43-11.88-30.75-29.28-30.75s-28.8,14-28.8,30.42v.33c0,16.43,11.87,30.75,29.12,30.75C1504.15,568.39,1515.7,554.4,1515.7,538Z" transform="translate(-361 -363.74)"/></g><g id="Layer_2" data-name="Layer 2"><rect class="cls-1" y="104.62" width="375" height="148.29"/><path d="M394,506.56H425V524.3c5-12,13.17-19.85,27.82-19.2v32.54h-2.61c-16.1,0-25.21,9.27-25.21,29.61v27.33H394Z" transform="translate(-361 -363.74)"/><path d="M455.22,569.37V569c0-18.22,13.83-27.66,34.49-27.66a67.49,67.49,0,0,1,21.15,3.42v-1.47c0-9.11-5.69-14.32-17.57-14.32a61.81,61.81,0,0,0-24.24,4.89l-6.35-21.81c9.92-4.06,20.5-6.83,35.63-6.83,15.78,0,26.52,3.74,33.52,10.74,6.67,6.51,9.44,15.62,9.44,28v50.6H510.7v-9.11c-6,6.67-14.32,11.07-25.87,11.07C468.07,596.54,455.22,586.94,455.22,569.37Zm56-6.68v-4.06a32.48,32.48,0,0,0-12-2.28c-8.95,0-14.16,4.39-14.16,10.9v.33c0,6,4.56,9.6,10.9,9.6C504.84,577.18,511.19,571.48,511.19,562.69Z" transform="translate(-361 -363.74)"/><path d="M561.62,567.25V531.46H551.21v-24.9h10.41V484.27h30.92v22.29H613v24.9h-20.5v29.77c0,6.18,2.76,8.79,8.46,8.79a27.08,27.08,0,0,0,11.71-2.93v24.24c-5.53,3.09-12.85,5-21.47,5C572.69,596.37,561.62,588.24,561.62,567.25Z" transform="translate(-361 -363.74)"/><path d="M620.36,551v-.33c0-25.7,18.38-46,44.42-46,30.42,0,44.41,22.29,44.41,48.16,0,2,0,4.23-.16,6.35h-58.9c2.44,9.59,9.44,14.48,19,14.48,7.32,0,13.18-2.77,19.52-9l17.09,14.15c-8.46,10.74-20.67,17.9-38.24,17.9C639.88,596.7,620.36,578.31,620.36,551Zm59.87-7.65c-1.14-9.76-6.83-15.94-15.29-15.94-8.14,0-13.67,6.34-15.3,15.94Z" transform="translate(-361 -363.74)"/></g><g id="Layer_3" data-name="Layer 3"><path class="cls-1" d="M1436.08,363.74,1456,385.58,1255.28,568.12q-27.36-42.4-54.59-84.61l24.58-15.85L1261,523Z" transform="translate(-361 -363.74)"/></g></svg>