<?xml version="1.0" encoding="utf-8"?>
<!-- Generator: Adobe Illustrator 22.0.0, SVG Export Plug-In . SVG Version: 6.00 Build 0)  -->
<svg version="1.1" xmlns="http://www.w3.org/2000/svg" xmlns:xlink="http://www.w3.org/1999/xlink" x="0px" y="0px"
	 viewBox="0 0 800 800" style="enable-background:new 0 0 800 800;" xml:space="preserve">
<style type="text/css">
	.st0{fill:#46A0FC;}
	.st1{fill:#F8FAFC;}
</style>
<g id="Layer_2">
	<rect x="0" y="0" class="st0" width="800" height="800"/>
</g>
<g id="Layer_1">
	<g>
		<g>
			<path class="st1" d="M704.8,727H96c0,0,45-195.6,57.5-217.5c9.9-17.3,107.9-41.7,153.3-57c12-4,20.3-7.4,22.3-9.9
				c0.2-0.3,0.5-0.6,0.7-0.9c6.9-10.1,7.6-40.4,7.6-55h126c-0.1,15.1,0.7,47,8.3,55.9c0.2,0.3,0.6,0.6,1,0.9
				c3.5,2.7,12.8,6.2,25.3,10.3c46.9,15.4,139.7,38.8,149.3,55.7C659.8,531.4,704.8,727,704.8,727z"/>
			<path class="st1" d="M291.9,233.7v65.5c0,14.9,2.5,29.7,7.5,43.8c7.9,22.1,22.6,54,46.9,75.8c14.8,13.2,34,20.4,53.9,20.4l0,0
				c19.9,0,39.2-7.2,53.9-20.4c24.3-21.8,39-53.7,46.9-75.8c5-14.1,7.5-28.9,7.5-43.8v-65.5H291.9z"/>
			<g>
				<path class="st1" d="M286.8,254.5c0,0-19.3-5.8-19.3,8.2c0,14,4.7,21.7,2.1,30c-2.5,8.3,3.8,27.9,23.5,27.9
					S286.8,254.5,286.8,254.5z"/>
				<path class="st1" d="M507.1,254.5c0,0,18.3-4.9,18.3,9.1s-3.7,20.8-1.2,29c2.5,8.3-3.8,27.9-23.5,27.9
					C481,320.5,507.1,254.5,507.1,254.5z"/>
			</g>
			<path class="st1" d="M274.7,263.7c0,0-0.4-2.1-0.9-5.7c-2.9-19.5-10.6-83.2,7.2-105.7c21-26.7,30.1-25.6,30.1-25.6
				s-1.1-29,27.6-36.7l-4.5,9.7c0,0,12.5-22.7,57.2-25.6l-10.5,7.1c0,0,15.1-7.4,38.7-5.7l-6.8,3.4c0,0,22.2-5.1,35,1.7l-8.8,0.3
				c0,0,22.7,5.4,31.6,15.1l-7.1,0.6c0,0,22.2,7.4,33.3,21l-6.8-0.3c0,0,17.9,8.5,24.2,29.3l-4.5-3.7c0,0,8.8,14.8,12.8,27.6
				l-4.3-4.3c0,0,9.1,23.3,10,31.8l-6.3-7.1c0,0,5.1,15.6,5.4,28.2l-5.1-6.3c0,0,2.8,13.4,2.3,28.7l-2.8-5.1c0,0,0,30.4-1.7,39
				c-1.7,8.5-11.1,26.4-11.1,26.4L393,292.1l-69.4-2.3l-43.2-5.7L274.7,263.7z"/>
		</g>
	</g>
</g>
</svg>
